<svg xmlns="http://www.w3.org/2000/svg" viewBox="0 0 512 512">
  <rect width="512" height="512" fill="#4ade80" rx="128"/>
  <path d="M256 120c-40 0-60 30-60 60 0 25 15 45 35 55-25 5-45 25-45 50 0 30 25 55 55 55h30c30 0 55-25 55-55 0-25-20-45-45-50 20-10 35-30 35-55 0-30-20-60-60-60z" fill="#ffffff"/>
  <path d="M241 340v80c0 8 7 15 15 15s15-7 15-15v-80" fill="#ffffff"/>
  <circle cx="220" cy="200" r="8" fill="#22c55e"/>
  <circle cx="292" cy="200" r="8" fill="#22c55e"/>
  <circle cx="256" cy="260" r="8" fill="#22c55e"/>
</svg>
